<svg xmlns="http://www.w3.org/2000/svg" version="1.1" xmlns:xlink="http://www.w3.org/1999/xlink" xmlns:svgjs="http://svgjs.dev/svgjs" width="1500" height="325" viewBox="0 0 1500 325"><g transform="matrix(1,0,0,1,-0.9090909090909918,-1.7186710342056983)"><svg viewBox="0 0 396 86" data-background-color="#ede1d1" preserveAspectRatio="xMidYMid meet" height="325" width="1500" xmlns="http://www.w3.org/2000/svg" xmlns:xlink="http://www.w3.org/1999/xlink"><g id="tight-bounds" transform="matrix(1,0,0,1,0.2400000000000091,0.4547867967436616)"><svg viewBox="0 0 395.52 85.09042640651269" height="85.09042640651269" width="395.52"><g><svg viewBox="0 0 617.3365951487299 132.8110692696959" height="85.09042640651269" width="395.52"><g><rect width="11.917452027626531" height="132.8110692696959" x="178.70162472417525" y="0" fill="#6a704c" opacity="1" stroke-width="0" stroke="transparent" fill-opacity="1" class="rect-yte-0" data-fill-palette-color="primary" rx="1%" id="yte-0" data-palette-color="#6a704c"></rect></g><g transform="matrix(1,0,0,1,221.81659514872987,0.3303757942032206)"><svg viewBox="0 0 395.52 132.15031768128947" height="132.15031768128947" width="395.52"><g id="textblocktransform"><svg viewBox="0 0 395.52 132.15031768128947" height="132.15031768128947" width="395.52" id="textblock"><g><svg viewBox="0 0 395.52 132.15031768128947" height="132.15031768128947" width="395.52"><g transform="matrix(1,0,0,1,0,0)"><svg width="395.52" viewBox="1 -37.5125 116.57999999999998 38.9578125" height="132.15031768128947" data-palette-color="#6a704c"><path d="M17.35-35.8L17.35-35.8Q17.25-35.95 17.07-36.27 16.9-36.6 17-36.7L17-36.7Q17.1-36.8 17.32-36.65 17.55-36.5 17.6-36.45L17.6-36.45Q18.5-35.8 19.28-34.65 20.05-33.5 20.68-32.13 21.3-30.75 21.8-29.25 22.3-27.75 22.6-26.4L22.6-26.4Q23.35-23.1 23.88-19.9 24.4-16.7 24.4-13.3L24.4-13.3Q24.4-13.2 24.43-12.7 24.45-12.2 24.25-12.1L24.25-12.1Q24.1-12.2 23.93-12.6 23.75-13 23.7-13.15L23.7-13.15Q23.1-15 22.63-17.38 22.15-19.75 21.75-21.7L21.75-21.7Q21.45-23.2 21.2-24.58 20.95-25.95 20.63-27.25 20.3-28.55 19.88-29.88 19.45-31.2 18.85-32.65L18.85-32.65Q18.75-32.85 18.53-33.35 18.3-33.85 18.05-34.35 17.8-34.85 17.6-35.27 17.4-35.7 17.35-35.8ZM29.35 1.25L29.35 1.25Q28.8 0.95 28.6 0.88 28.4 0.8 27.85 0.45L27.85 0.45Q26.65-0.25 25.65-1.38 24.65-2.5 23.85-3.85 23.05-5.2 22.43-6.73 21.8-8.25 21.35-9.75L21.35-9.75Q20.35-9.1 18.98-8.97 17.6-8.85 16.45-8.85L16.45-8.85Q15-8.85 13.58-8.95 12.15-9.05 10.7-9.05L10.7-9.05Q9.3-6.45 8.08-4.03 6.85-1.6 6.15 0.5L6.15 0.5Q6.15 0.55 6.1 0.73 6.05 0.9 5.95 0.9L5.95 0.9Q5.8 0.9 5.8 0.55 5.8 0.2 5.8 0.1L5.8 0.1Q5.8-1.9 6.78-4.38 7.75-6.85 8.95-9.25L8.95-9.25 8.2-9.3Q7.9-8.6 7.38-7.35 6.85-6.1 6.38-4.75 5.9-3.4 5.53-2.15 5.15-0.9 5.15-0.15L5.15-0.15Q5.15 0 5 0L5 0Q4.8 0 4.7-0.33 4.6-0.65 4.53-1.05 4.45-1.45 4.42-1.88 4.4-2.3 4.4-2.45L4.4-2.45Q4.4-4.2 4.85-6.13 5.3-8.05 6.05-9.65L6.05-9.65 5.4-9.75Q4.95-8.65 4.55-7.58 4.15-6.5 3.85-5.35L3.85-5.35Q3.85-5.25 3.8-5.1 3.75-4.95 3.65-5L3.65-5Q3.55-5.2 3.53-5.48 3.5-5.75 3.5-5.95L3.5-5.95Q3.5-8.05 4.25-10L4.25-10Q4.5-10.5 4.75-10.5L4.75-10.5Q5.8-10.8 6.88-10.85 7.95-10.9 9.1-10.9L9.1-10.9Q11.6-10.9 14.05-10.53 16.5-10.15 18.95-10.15L18.95-10.15Q20.15-10.15 21.15-10.35L21.15-10.35 21.05-11.15Q20.5-11 19.88-10.95 19.25-10.9 18.7-10.9L18.7-10.9Q16.75-10.9 14.68-11.3 12.6-11.7 10.7-12.25L10.7-12.25Q10.6-12.35 10.3-12.43 10-12.5 10-12.65L10-12.65Q10-12.75 10.3-12.83 10.6-12.9 10.7-12.9L10.7-12.9Q11.4-12.95 12.08-12.98 12.75-13 13.45-13L13.45-13Q14.6-13 15.75-12.98 16.9-12.95 18.1-12.95L18.1-12.95Q18.7-12.95 19.35-12.95 20-12.95 20.6-13L20.6-13 20.5-13.55 19.85-13.55Q17.45-13.55 15.08-14 12.7-14.45 10.3-14.45L10.3-14.45Q8.25-14.45 6.68-13.95 5.1-13.45 3.98-12.8 2.85-12.15 2.15-11.5 1.45-10.85 1.15-10.55L1.15-10.55Q1.05-10.5 1.05-10.5L1.05-10.5Q1-10.5 1-10.6L1-10.6Q1-10.65 1.05-10.7L1.05-10.7Q1.95-12.45 3.25-13.63 4.55-14.8 6.45-15.4L6.45-15.4Q8.35-19.45 10.38-23.45 12.4-27.45 14.65-31.35L14.65-31.35Q14.7-31.45 14.85-31.68 15-31.9 15.15-31.9L15.15-31.9Q15.2-31.85 15.2-31.8L15.2-31.8 15.2-31.7Q15.2-31.3 15.15-31.1L15.15-31.1Q14.2-27.05 12.35-23.3 10.5-19.55 8.55-15.9L8.55-15.9 9.5-15.95Q9.65-16.25 10.28-17.25 10.9-18.25 11.63-19.33 12.35-20.4 12.95-21.28 13.55-22.15 13.7-22.15L13.7-22.15 13.75-22Q13.75-21.75 13.45-20.9 13.15-20.05 12.75-19.05 12.35-18.05 11.98-17.18 11.6-16.3 11.45-15.95L11.45-15.95Q11.75-15.95 12.05-15.93 12.35-15.9 12.65-15.9L12.65-15.9Q13.55-17.7 14.58-19.68 15.6-21.65 16.35-23.7 17.1-25.75 17.38-27.85 17.65-29.95 17.05-32L17.05-32Q17.05-31.75 16.93-31 16.8-30.25 16.6-29.43 16.4-28.6 16.2-27.98 16-27.35 15.8-27.35L15.8-27.35Q15.65-27.35 15.68-27.55 15.7-27.75 15.7-27.8L15.7-27.8Q15.7-29.1 15.88-30.38 16.05-31.65 16.05-32.95L16.05-32.95Q16.05-34.7 15.5-36.35L15.5-36.35Q15.5-36.4 15.35-36.77 15.2-37.15 15.45-37.15L15.45-37.15Q15.55-37.15 15.8-36.9L15.8-36.9Q16.3-36.4 16.78-35.55 17.25-34.7 17.65-33.73 18.05-32.75 18.4-31.8 18.75-30.85 18.95-30.2L18.95-30.2Q19.6-28.05 20.03-25.88 20.45-23.7 20.78-21.53 21.1-19.35 21.45-17.15 21.8-14.95 22.25-12.8L22.25-12.8Q22.7-10.7 23.33-8.7 23.95-6.7 24.85-4.9 25.75-3.1 26.93-1.58 28.1-0.05 29.65 1.1L29.65 1.1Q29.9 1.35 29.83 1.43 29.75 1.5 29.35 1.25ZM29.1-3.6L29.25-3Q29.3-2.7 29.2-2.73 29.1-2.75 28.98-2.9 28.85-3.05 28.73-3.25 28.6-3.45 28.6-3.5L28.6-3.5Q27.4-5.7 26.7-7.98 26-10.25 25.6-12.58 25.2-14.9 24.93-17.28 24.65-19.65 24.28-22.13 23.9-24.6 23.3-27.15 22.7-29.7 21.6-32.35L21.6-32.35Q21.55-32.45 21.45-32.7 21.35-32.95 21.45-33L21.45-33Q21.55-33 21.7-32.85L21.7-32.85 21.9-32.65Q23-31.35 23.85-29.2 24.7-27.05 25.35-24.6 26-22.15 26.43-19.75 26.85-17.35 27.1-15.55L27.1-15.55Q27.5-12.7 27.95-9.55 28.4-6.4 29.1-3.6L29.1-3.6ZM14.4-15.7L14.4-15.7Q15.85-15.55 17.28-15.35 18.7-15.15 20.15-15.05L20.15-15.05Q19.6-17.7 19.2-20.3 18.8-22.9 18.45-25.6L18.45-25.6Q17.8-23 16.68-20.55 15.55-18.1 14.4-15.7ZM30.85 0.7L30.85 0.7Q29.85 0.25 29.1-0.18 28.35-0.6 27.8-1.35L27.8-1.35Q26.95-2.5 26.48-3.65 26-4.8 25.7-5.8L25.7-5.8Q25.6-6.2 25.53-6.7 25.45-7.2 25.55-7.2L25.55-7.2Q25.75-7.2 26.05-6.55 26.35-5.9 26.6-5.45L26.6-5.45Q27.35-3.9 28.5-2.33 29.65-0.75 31 0.25L31 0.25Q31.4 0.6 31.25 0.7 31.1 0.8 30.85 0.7ZM1.3-8.9L1.3-8.9Q1.3-8.9 1.2-8.9L1.2-8.9 1.15-8.9Q1.15-9.05 1.2-9.2 1.25-9.35 1.3-9.5L1.3-9.5Q1.7-10.35 2.08-10.78 2.45-11.2 3.3-11.7L3.3-11.7Q3.8-12 4.7-12.3 5.6-12.6 6.15-12.6L6.15-12.6Q6.25-12.6 6.43-12.58 6.6-12.55 6.6-12.4L6.6-12.4Q6.6-12.25 6.08-12 5.55-11.75 5.4-11.65L5.4-11.65Q3.5-10.5 2.6-9.9 1.7-9.3 1.3-8.9ZM38.25-16.65L38.25-16.65Q37.85-14.95 37.12-13.08 36.4-11.2 35.5-9.6L35.5-9.6Q35.5-9.5 35.37-9.28 35.25-9.05 35.05-9.05L35.05-9.05Q34.95-9.05 34.92-9.35 34.9-9.65 34.95-9.75L34.95-9.75Q34.95-10.55 35.15-11.88 35.35-13.2 35.65-14.05L35.65-14.05Q35.75-14.35 35.97-15.5 36.2-16.65 36.37-18.07 36.55-19.5 36.57-20.83 36.6-22.15 36.25-22.8L36.25-22.8 36.25-23Q36.45-23.15 36.7-22.9L36.7-22.9Q37.35-22.35 37.72-21.55 38.1-20.75 38.27-19.88 38.45-19 38.42-18.15 38.4-17.3 38.25-16.65ZM40.2-16.85L40.2-16.85Q40.75-17.55 41.25-17.85 41.75-18.15 42.25-18.35L42.25-18.35Q42.3-18.35 42.5-18.4 42.7-18.45 42.8-18.3L42.8-18.3Q42.9-18.15 42.75-17.95 42.6-17.75 42.5-17.65L42.5-17.65Q42.15-17.3 41.72-16.88 41.3-16.45 40.95-16.05L40.95-16.05Q40.45-15.5 40.15-14.78 39.85-14.05 39.7-13.3L39.7-13.3Q40.55-14.2 41.32-15 42.1-15.8 43-16.5L43-16.5Q44.15-17.35 45-18.7 45.85-20.05 46.2-22.65L46.2-22.65Q46.3-22.9 46.45-22.95 46.6-23 46.6-22.6L46.6-22.6Q46.75-19.7 46-18 45.25-16.3 43.75-15.15L43.75-15.15Q42.95-14.55 42.15-13.85 41.35-13.15 40.62-12.3 39.9-11.45 39.3-10.3 38.7-9.15 38.25-7.65L38.25-7.65Q37.9-6.5 37.55-5.48 37.2-4.45 36.8-3.5L36.8-3.5Q36.7-3.15 36.5-3.15L36.5-3.15Q36.35-3.2 36.35-3.65L36.35-3.65Q36.1-6.05 36.67-8.43 37.25-10.8 38.05-13.35L38.05-13.35Q38.4-14.6 38.87-15.85 39.35-17.1 39.3-18.7L39.3-18.7Q39.3-19.25 39.75-19.85 40.2-20.45 40.85-20.98 41.5-21.5 42.2-21.88 42.9-22.25 43.4-22.4L43.4-22.4Q43.85-22.55 43.85-22.35 43.85-22.15 43.55-21.85L43.55-21.85Q42.5-20.9 41.42-19.6 40.35-18.3 40.2-16.85ZM35.85-0.05L35.85-0.05Q35.8 0 35.77-0.03 35.75-0.05 35.5-0.2L35.5-0.2Q34-1.3 33.15-2.6 32.3-3.9 31.92-5.28 31.55-6.65 31.6-8.03 31.65-9.4 31.95-10.7L31.95-10.7Q32.35-12.45 32.92-14.18 33.5-15.9 34-17.53 34.5-19.15 34.75-20.73 35-22.3 34.75-23.75L34.75-23.75Q34.75-23.85 34.9-23.9L34.9-23.9Q34.95-23.9 35-23.83 35.05-23.75 35.1-23.7L35.1-23.7Q36.05-22.1 36.05-20.43 36.05-18.75 35.6-17.03 35.15-15.3 34.47-13.53 33.8-11.75 33.4-9.95L33.4-9.95Q32.9-7.65 33.32-5.05 33.75-2.45 35.65-0.4L35.65-0.4Q35.75-0.25 35.85-0.2 35.95-0.15 35.85-0.05ZM37.35 0L37.35 0Q37.25 0 37.15-0.05L37.15-0.05 36.95-0.15Q36.25-0.6 35.7-1.13 35.15-1.65 34.75-2.65L34.75-2.65Q34.6-3 34.5-3.58 34.4-4.15 34.37-4.65 34.35-5.15 34.42-5.5 34.5-5.85 34.7-5.8L34.7-5.8Q34.85-5.8 35.02-5.4 35.2-5 35.3-4.6L35.3-4.6Q35.4-4.05 35.52-3.55 35.65-3.05 35.85-2.65L35.85-2.65Q36.4-1.4 37.3-0.25L37.3-0.25Q37.4 0 37.35 0ZM45.5-22.45L45.5-22.45Q45.5-21.4 44.9-20.6 44.3-19.8 43.45-19.25L43.45-19.25Q43.3-19.15 43.25-19.28 43.2-19.4 43.2-19.45L43.2-19.45Q43.2-19.75 43.45-20.18 43.7-20.6 44.02-21.08 44.35-21.55 44.65-22.05 44.95-22.55 45.05-22.95L45.05-22.95Q45.2-23.2 45.35-22.95 45.5-22.7 45.5-22.45ZM60.65-15.75L60.65-15.75Q59.8-14 58.65-12.23 57.5-10.45 56.25-9.05L56.25-9.05Q56.2-8.95 56-8.72 55.8-8.5 55.65-8.55L55.65-8.55Q55.55-8.65 55.6-8.9 55.65-9.15 55.7-9.3L55.7-9.3Q55.95-10.1 56.45-11.4 56.95-12.7 57.5-13.5L57.5-13.5Q57.65-13.75 58.12-14.9 58.6-16.05 59.05-17.48 59.5-18.9 59.75-20.25 60-21.6 59.7-22.25L59.7-22.25Q59.7-22.25 59.7-22.4L59.7-22.4 59.7-22.45Q59.9-22.45 60-22.25L60-22.25Q60.55-21.6 60.82-20.75 61.1-19.9 61.15-19 61.2-18.1 61.07-17.23 60.95-16.35 60.65-15.75ZM62.3-18.85L62.3-18.85Q62.85-17.8 62.62-16.32 62.4-14.85 61.82-13.3 61.25-11.75 60.52-10.38 59.8-9 59.35-8.15L59.35-8.15Q58.6-6.7 57.52-5.23 56.45-3.75 55.55-2.6L55.55-2.6Q55.3-2.25 55.1-2.25L55.1-2.25Q55-2.35 55.02-2.5 55.05-2.65 55.1-2.8L55.1-2.8Q55.9-5.4 57.1-7.63 58.3-9.85 59.6-12.25L59.6-12.25Q60.45-13.75 61.12-15.33 61.8-16.9 62.05-18.8L62.05-18.8Q62.05-19.05 62.1-19.05L62.1-19.05Q62.25-19.05 62.3-18.85ZM51.65-17.2L51.65-17.2Q51.65-15.35 51.37-13.2 51.1-11.05 50.8-9.5L50.8-9.5Q50.8-9.4 50.72-9.15 50.65-8.9 50.45-8.85L50.45-8.85Q50.35-8.85 50.27-9.1 50.2-9.35 50.15-9.45L50.15-9.45Q50.05-9.85 49.97-10.43 49.9-11 49.85-11.6 49.8-12.2 49.77-12.8 49.75-13.4 49.8-13.85L49.8-13.85Q49.85-14.15 49.75-15.35 49.65-16.55 49.45-17.95 49.25-19.35 48.9-20.63 48.55-21.9 48.05-22.4L48.05-22.4Q47.95-22.5 47.92-22.63 47.9-22.75 47.95-22.75L47.95-22.75Q48.05-22.75 48.17-22.7 48.3-22.65 48.4-22.6L48.4-22.6Q49.1-22.3 49.7-21.65 50.3-21 50.72-20.23 51.15-19.45 51.4-18.65 51.65-17.85 51.65-17.2ZM54.45 0L54.45 0Q54.45 0.2 54.35 0.2L54.35 0.2Q54.3 0.2 54.17 0.13 54.05 0.05 53.95 0L53.95 0Q53.55-0.3 53.37-0.85 53.2-1.4 53.3-2.5L53.3-2.5Q53.3-2.95 53.4-3.5 53.5-4.05 53.65-4.53 53.8-5 53.95-5.28 54.1-5.55 54.25-5.5L54.25-5.5Q54.5-5.4 54.47-4.88 54.45-4.35 54.45-4.1L54.45-4.1Q54.4-2.8 54.4-1.75 54.4-0.7 54.45 0ZM51.6-2.55L51.6-2.55Q51.35-2.85 51.15-3.35 50.95-3.85 50.8-4.33 50.65-4.8 50.62-5.15 50.6-5.5 50.75-5.55L50.75-5.55Q51-5.6 51.22-5.28 51.45-4.95 51.6-4.65L51.6-4.65Q51.55-5.7 51.72-6.78 51.9-7.85 52-8.75L52-8.75Q52.15-10.05 52.25-11.08 52.35-12.1 52.4-13.55L52.4-13.55Q52.5-15.1 52.4-16.95 52.3-18.8 51.6-20.55L51.6-20.55Q51.55-20.7 51.65-20.7L51.65-20.7Q51.75-20.7 51.8-20.65 51.85-20.6 51.95-20.55L51.95-20.55Q52.6-20.05 53.02-19.18 53.45-18.3 53.67-17.23 53.9-16.15 53.97-14.98 54.05-13.8 54.05-12.75L54.05-12.75Q54.8-14.1 55.6-15.43 56.4-16.75 57-18.07 57.6-19.4 57.95-20.68 58.3-21.95 58.25-23.2L58.25-23.2Q58.25-23.4 58.3-23.45L58.3-23.45Q58.35-23.45 58.5-23.2L58.5-23.2Q59.2-21.55 58.95-19.88 58.7-18.2 57.92-16.53 57.15-14.85 56.1-13.18 55.05-11.5 54.25-9.85L54.25-9.85Q53.25-7.75 52.82-5.25 52.4-2.75 53.1 0L53.1 0 53.1 0.05Q53.05 0.1 53.05 0.1L53.05 0.1Q52.95 0.1 52.9 0.05L52.9 0.05Q52.85 0.05 52.85 0L52.85 0Q52.7-0.2 52.5-0.4 52.3-0.6 51.95-0.8L51.95-0.8Q50.5-1.55 49.55-2.55 48.6-3.55 48.07-4.7 47.55-5.85 47.32-7.1 47.1-8.35 47.1-9.6L47.1-9.6Q47.05-11.4 47.17-13.23 47.3-15.05 47.32-16.75 47.35-18.45 47.15-20.03 46.95-21.6 46.3-22.9L46.3-22.9Q46.3-23 46.3-23L46.3-23Q46.4-23.1 46.5-23.05 46.6-23 46.65-22.95L46.65-22.95Q47.95-21.75 48.4-20.15 48.85-18.55 48.9-16.75 48.95-14.95 48.75-13.05 48.55-11.15 48.6-9.3L48.6-9.3Q48.65-8.2 48.85-7.05 49.05-5.9 49.5-4.83 49.95-3.75 50.67-2.75 51.4-1.75 52.4-0.95L52.4-0.95Q52.2-1.45 52.1-1.68 52-1.9 51.6-2.55ZM70.54-16.5L70.54-16.5Q70.69-17.15 70.72-18 70.74-18.85 70.59-19.75 70.44-20.65 70.07-21.48 69.69-22.3 69.09-22.9L69.09-22.9Q68.79-23.1 68.74-23.1L68.74-23.1Q68.54-23.1 68.74-22.8L68.74-22.8Q69.04-22.15 68.97-20.78 68.89-19.4 68.64-17.93 68.39-16.45 68.12-15.28 67.84-14.1 67.79-13.85L67.79-13.85Q67.44-12.95 67.17-11.6 66.89-10.25 66.89-9.4L66.89-9.4Q66.84-9.3 66.84-9 66.84-8.7 66.99-8.65L66.99-8.65Q67.04-8.65 67.19-8.9 67.34-9.15 67.44-9.25L67.44-9.25Q68.34-10.85 69.17-12.75 69.99-14.65 70.54-16.5ZM70.74-8.95L70.74-8.95Q70.94-9.85 71.39-11.28 71.84-12.7 72.14-14.23 72.44-15.75 72.44-17.23 72.44-18.7 71.84-19.65L71.84-19.65Q71.64-19.85 71.54-19.85L71.54-19.85Q71.44-19.85 71.49-19.65L71.49-19.65Q71.49-17.75 71.07-16.13 70.64-14.5 70.14-12.95L70.14-12.95Q69.29-10.4 68.59-7.98 67.89-5.55 67.99-3L67.99-3Q67.99-2.85 68.02-2.68 68.04-2.5 68.19-2.5L68.19-2.5Q68.29-2.5 68.34-2.6 68.39-2.7 68.49-2.9L68.49-2.9Q68.99-4.1 69.64-5.73 70.29-7.35 70.74-8.95ZM67.19 0L67.19 0Q66.24-1 65.74-2.23 65.24-3.45 65.04-4.73 64.84-6 64.94-7.3 65.04-8.6 65.34-9.75L65.34-9.75Q65.79-11.55 66.49-13.35 67.19-15.15 67.69-16.93 68.19-18.7 68.27-20.43 68.34-22.15 67.54-23.8L67.54-23.8Q67.39-24.05 67.34-24.05L67.34-24.05Q67.29-24.05 67.29-23.98 67.29-23.9 67.34-23.85L67.34-23.85Q67.49-22.35 67.14-20.75 66.79-19.15 66.24-17.48 65.69-15.8 65.02-14.03 64.34-12.25 63.89-10.4L63.89-10.4Q63.54-9.05 63.42-7.65 63.29-6.25 63.59-4.88 63.89-3.5 64.69-2.25 65.49-1 66.99 0.05L66.99 0.05Q67.09 0.15 67.24 0.18 67.39 0.2 67.19 0ZM67.59-1.9L67.59-1.9Q67.44-2.3 67.27-2.9 67.09-3.5 66.99-4.05L66.99-4.05Q66.89-4.25 66.74-4.8 66.59-5.35 66.49-5.35L66.49-5.35Q66.29-5.35 66.22-5 66.14-4.65 66.14-4.13 66.14-3.6 66.22-3.03 66.29-2.45 66.44-2.05L66.44-2.05Q66.74-1.05 67.17-0.65 67.59-0.25 68.29 0L68.29 0Q68.59 0.15 68.74 0.15L68.74 0.15Q68.79 0.15 68.77 0.08 68.74 0 68.69 0L68.69 0Q68.34-0.4 68.07-0.85 67.79-1.3 67.59-1.9ZM71.49-27.75L71.49-27.75Q71.24-27.75 70.72-27.83 70.19-27.9 70.19-28.3L70.19-28.3Q70.19-28.45 70.64-28.68 71.09-28.9 71.64-29.33 72.19-29.75 72.64-30.43 73.09-31.1 73.09-32.15L73.09-32.15Q73.09-33.45 72.59-34.1L72.59-34.1Q72.49-34.25 72.34-34.43 72.19-34.6 72.24-34.65L72.24-34.65Q72.34-34.65 72.47-34.58 72.59-34.5 72.64-34.45L72.64-34.45Q73.64-33.9 74.17-33.02 74.69-32.15 74.69-31.35L74.69-31.35Q74.69-29.75 73.94-28.75 73.19-27.75 71.49-27.75ZM69.64-29.75L69.64-29.75Q69.04-29.5 69.04-30.05L69.04-30.05Q69.04-30.45 69.34-30.83 69.64-31.2 69.92-31.65 70.19-32.1 70.29-32.68 70.39-33.25 69.99-34.1L69.99-34.1Q69.89-34.35 69.64-34.65 69.39-34.95 69.49-35L69.49-35Q69.59-35.05 69.92-34.93 70.24-34.8 70.34-34.75L70.34-34.75Q71.19-34.35 71.62-33.55 72.04-32.75 72.04-32.15L72.04-32.15Q72.04-31.2 71.27-30.58 70.49-29.95 69.64-29.75ZM68.19-32.45L68.19-32.45Q68.19-32.7 68.34-33.02 68.49-33.35 68.84-33.35L68.84-33.35Q69.09-33.35 69.24-33.02 69.39-32.7 69.39-32.45L69.39-32.45Q69.39-32.25 69.24-31.93 69.09-31.6 68.84-31.6L68.84-31.6Q68.49-31.6 68.34-31.9 68.19-32.2 68.19-32.45ZM90.24-17.95L90.24-17.95Q90.34-16.4 90.04-14.98 89.74-13.55 89.29-12.35L89.29-12.35Q89.19-12.1 88.97-11.8 88.74-11.5 88.54-11.6L88.54-11.6Q88.44-11.6 88.49-11.95 88.54-12.3 88.54-12.45L88.54-12.45Q88.59-13 88.62-13.83 88.64-14.65 88.64-15.5 88.64-16.35 88.57-17.13 88.49-17.9 88.34-18.45L88.34-18.45Q87.89-20.05 86.92-20.23 85.94-20.4 84.94-19.7 83.94-19 83.04-17.75 82.14-16.5 81.84-15.3L81.84-15.3Q82.14-15.75 82.62-16.38 83.09-17 83.69-17.57 84.29-18.15 84.97-18.53 85.64-18.9 86.24-18.85L86.24-18.85Q86.89-18.8 87.17-18.15 87.44-17.5 87.49-16.55 87.54-15.6 87.39-14.5 87.24-13.4 87.04-12.45L87.04-12.45Q86.69-10.9 86.44-9.25 86.19-7.6 86.27-6.03 86.34-4.45 86.82-2.98 87.29-1.5 88.44-0.25L88.44-0.25Q88.54-0.1 88.59 0 88.64 0.1 88.34-0.05L88.34-0.05Q87.04-0.8 86.27-1.8 85.49-2.8 85.09-3.95 84.69-5.1 84.62-6.35 84.54-7.6 84.64-8.85L84.64-8.85Q84.84-10.65 85.24-12 85.64-13.35 85.84-15.05L85.84-15.05Q85.94-16.1 85.69-16.43 85.44-16.75 85.09-16.8L85.09-16.8Q84.59-16.85 83.97-16.28 83.34-15.7 82.67-14.65 81.99-13.6 81.37-12.2 80.74-10.8 80.29-9.25L80.29-9.25Q79.89-7.7 79.32-6.03 78.74-4.35 78.24-3.15L78.24-3.15Q78.04-2.7 77.94-2.7L77.94-2.7Q77.84-2.7 77.77-2.9 77.69-3.1 77.69-3.2L77.69-3.2Q77.49-5.7 78.14-8.15 78.79-10.6 79.64-13.1L79.64-13.1Q80.14-14.65 80.54-15.85 80.94-17.05 80.94-18.9L80.94-18.9Q80.94-19.7 81.34-20.58 81.74-21.45 82.52-22.18 83.29-22.9 84.44-23.35 85.59-23.8 87.04-23.75L87.04-23.75Q89.44-23.7 90.74-22.63 92.04-21.55 92.57-19.9 93.09-18.25 93.02-16.32 92.94-14.4 92.59-12.6L92.59-12.6Q92.29-11.25 91.89-10.15 91.49-9.05 91.04-8.1 90.59-7.15 90.19-6.3 89.79-5.45 89.54-4.6L89.54-4.6Q89.49-4.45 89.44-4.28 89.39-4.1 89.29-4.1L89.29-4.1Q89.19-4.1 89.14-4.3 89.09-4.5 89.09-4.75L89.09-4.75Q88.99-6.45 89.44-8.03 89.89-9.6 90.39-11.28 90.89-12.95 91.14-14.8 91.39-16.65 90.94-18.9L90.94-18.9Q90.49-21.3 88.74-22.1 86.99-22.9 84.74-22L84.74-22Q84.44-21.85 83.94-21.55 83.44-21.25 82.97-20.75 82.49-20.25 82.09-19.58 81.69-18.9 81.59-18.1L81.59-18.1Q82.19-19 82.99-19.8 83.79-20.6 84.69-21.08 85.59-21.55 86.52-21.65 87.44-21.75 88.34-21.3L88.34-21.3Q89.39-20.75 89.79-19.78 90.19-18.8 90.24-17.95ZM80.04-16.6L80.04-16.6Q79.49-14.7 78.57-12.85 77.64-11 77.04-9.3L77.04-9.3Q76.99-9.2 76.87-8.93 76.74-8.65 76.54-8.7L76.54-8.7Q76.44-8.75 76.42-9.03 76.39-9.3 76.39-9.45L76.39-9.45Q76.39-10.25 76.67-11.58 76.94-12.9 77.24-13.75L77.24-13.75Q77.34-14.05 77.62-15.28 77.89-16.5 78.12-17.95 78.34-19.4 78.42-20.75 78.49-22.1 78.14-22.7L78.14-22.7Q77.94-23.05 78.14-23.05L78.14-23.05Q78.29-23.05 78.54-22.8L78.54-22.8Q79.14-22.25 79.52-21.45 79.89-20.65 80.07-19.78 80.24-18.9 80.22-18.05 80.19-17.2 80.04-16.6ZM90.24-0.05L90.24-0.05Q90.14 0 89.84-0.1L89.84-0.1Q89.69-0.15 89.59-0.2L89.59-0.2Q88.89-0.65 88.39-1.23 87.89-1.8 87.39-3.2L87.39-3.2Q87.24-3.7 87.17-4.48 87.09-5.25 87.14-6 87.19-6.75 87.32-7.28 87.44-7.8 87.69-7.8L87.69-7.8Q87.79-7.8 87.92-7.23 88.04-6.65 88.17-5.9 88.29-5.15 88.44-4.4 88.59-3.65 88.69-3.3L88.69-3.3Q88.94-2.55 89.19-1.8 89.44-1.05 89.99-0.5L89.99-0.5Q90.09-0.4 90.19-0.23 90.29-0.05 90.24-0.05ZM76.74 0.05L76.74 0.05Q75.19-1 74.37-2.25 73.54-3.5 73.24-4.85 72.94-6.2 73.02-7.6 73.09-9 73.39-10.35L73.39-10.35Q73.79-12.15 74.42-13.93 75.04-15.7 75.62-17.38 76.19-19.05 76.52-20.65 76.84-22.25 76.59-23.7L76.59-23.7Q76.59-23.9 76.64-23.9L76.64-23.9Q76.74-23.9 76.89-23.65L76.89-23.65Q77.79-22.05 77.74-20.35 77.69-18.65 77.19-16.88 76.69-15.1 75.97-13.28 75.24-11.45 74.84-9.6L74.84-9.6Q74.59-8.45 74.52-7.18 74.44-5.9 74.69-4.65 74.94-3.4 75.52-2.2 76.09-1 77.09-0.05L77.09-0.05Q77.29 0.05 77.19 0.15L77.19 0.15Q77.09 0.25 76.97 0.18 76.84 0.1 76.74 0.05ZM78.64 0.25L78.64 0.25Q78.49 0.35 78.24 0.1L78.24 0.1Q77.69-0.3 77.17-0.75 76.64-1.2 76.14-2.2L76.14-2.2Q75.94-2.55 75.84-3.1 75.74-3.65 75.74-4.17 75.74-4.7 75.82-5.05 75.89-5.4 76.04-5.4L76.04-5.4Q76.24-5.35 76.37-4.85 76.49-4.35 76.59-4.2L76.59-4.2Q76.79-3.65 76.94-3.18 77.09-2.7 77.29-2.25L77.29-2.25Q77.59-1.55 77.89-1.05 78.19-0.55 78.59-0.05L78.59-0.05Q78.64 0 78.69 0.1 78.74 0.2 78.64 0.25ZM115.64-26.05L115.64-26.05Q114.94-22.9 113.81-19.78 112.69-16.65 111.59-13.85L111.59-13.85Q111.54-13.6 111.34-13.2 111.14-12.8 110.89-12.9L110.89-12.9Q110.84-12.9 110.84-13.35 110.84-13.8 110.89-13.95L110.89-13.95Q110.99-14.65 111.16-15.63 111.34-16.6 111.56-17.6 111.79-18.6 112.04-19.58 112.29-20.55 112.49-21.25L112.49-21.25Q112.64-21.55 112.86-22.6 113.09-23.65 113.34-25.08 113.59-26.5 113.79-28.15 113.99-29.8 114.04-31.33 114.09-32.85 114.01-34.1 113.94-35.35 113.59-35.95L113.59-35.95Q113.34-36.45 113.49-36.5L113.49-36.5Q113.69-36.5 113.94-36.25L113.94-36.25Q114.69-35.5 115.11-34.23 115.54-32.95 115.74-31.48 115.94-30 115.89-28.55 115.84-27.1 115.64-26.05ZM116.94-31.6L116.94-31.6Q117.44-30.6 117.54-29.15 117.64-27.7 117.49-26.03 117.34-24.35 117.01-22.58 116.69-20.8 116.29-19.18 115.89-17.55 115.51-16.15 115.14-14.75 114.89-13.85L114.89-13.85Q114.19-11.25 113.61-8.68 113.04-6.1 113.04-4.3L113.04-4.3Q113.04-3.65 112.99-3.65L112.99-3.65Q112.89-3.55 112.76-3.8 112.64-4.05 112.54-4.3L112.54-4.3Q112.04-6.1 112.11-8.03 112.19-9.95 112.59-11.98 112.99-14 113.61-16.07 114.24-18.15 114.84-20.2L114.84-20.2Q115.54-22.8 116.24-25.63 116.94-28.45 116.69-31.6L116.69-31.6Q116.69-31.85 116.66-31.88 116.64-31.9 116.69-31.9L116.69-31.9Q116.79-31.9 116.94-31.6ZM109.74-21.35L109.74-21.35Q106.74-20.05 104.61-17.73 102.49-15.4 101.39-12.55L101.39-12.55Q100.94-11.35 100.66-10.28 100.39-9.2 100.29-8L100.29-8Q100.24-7.4 100.59-7.55 100.94-7.7 101.19-8L101.19-8Q101.79-8.75 102.29-9.47 102.79-10.2 103.31-10.98 103.84-11.75 104.41-12.63 104.99-13.5 105.69-14.5L105.69-14.5Q106.44-15.55 107.11-16.57 107.79-17.6 108.31-18.5 108.84-19.4 109.21-20.15 109.59-20.9 109.74-21.35ZM108.64-17.4L108.64-17.4Q106.84-13.9 104.94-10.83 103.04-7.75 100.59-5.2L100.59-5.2Q99.04-3.55 98.74-5.7L98.74-5.7Q98.64-7.4 98.99-9.25 99.34-11.1 100.04-12.75L100.04-12.75Q100.69-14.35 101.64-15.85 102.59-17.35 103.84-18.6 105.09-19.85 106.61-20.7 108.14-21.55 109.89-21.85L109.89-21.85Q110.49-23.95 111.04-25.98 111.59-28 111.94-29.95 112.29-31.9 112.31-33.73 112.34-35.55 111.99-37.2L111.99-37.2Q111.89-37.5 111.94-37.5L111.94-37.5Q112.04-37.55 112.11-37.4 112.19-37.25 112.19-37.2L112.19-37.2Q113.39-34.8 113.36-32.05 113.34-29.3 112.69-26.35 112.04-23.4 111.06-20.35 110.09-17.3 109.39-14.25L109.39-14.25Q108.94-12.3 108.86-10.08 108.79-7.85 109.29-5.7L109.29-5.7Q109.79-3.45 111.14-1.88 112.49-0.3 114.24-0.15L114.24-0.15Q114.64-0.1 114.64 0L114.64 0Q114.64 0.1 114.51 0.13 114.39 0.15 114.29 0.15L114.29 0.15Q113.24 0.15 112.21-0.25 111.19-0.65 110.29-1.4 109.39-2.15 108.71-3.18 108.04-4.2 107.74-5.5L107.74-5.5Q107.64-5.9 107.64-6.15L107.64-6.15Q106.24-3.5 104.26-1.88 102.29-0.25 99.29 0L99.29 0Q97.04 0.15 95.86-1.05 94.69-2.25 94.24-3.95 93.79-5.65 93.94-7.53 94.09-9.4 94.49-10.6L94.49-10.6Q95.64-14.05 97.39-16.68 99.14-19.3 100.89-20.35L100.89-20.35Q100.99-20.45 101.19-20.53 101.39-20.6 101.44-20.55L101.44-20.55Q101.54-20.5 101.39-20.35 101.24-20.2 101.19-20.15L101.19-20.15Q98.49-17.45 97.01-13.98 95.54-10.5 95.44-6.9L95.44-6.9Q95.39-6 95.49-4.95 95.59-3.9 95.96-2.98 96.34-2.05 97.04-1.43 97.74-0.8 98.94-0.8L98.94-0.8Q100.64-0.75 102.16-1.83 103.69-2.9 104.81-4.48 105.94-6.05 106.64-7.85 107.34-9.65 107.44-11.15L107.44-11.15Q107.09-10.75 106.84-10.33 106.59-9.9 106.19-9.4L106.19-9.4Q106.14-9.3 105.89-9.08 105.64-8.85 105.49-8.9L105.49-8.9Q105.39-8.95 105.59-9.47 105.79-10 106.09-10.63 106.39-11.25 106.69-11.83 106.99-12.4 107.09-12.6L107.09-12.6Q107.64-13.75 107.94-14.9 108.24-16.05 108.64-17.4ZM115.59-1.15L115.59-1.15Q115.59-1.05 115.34-0.95L115.34-0.95Q115.19-0.9 115.09-0.9L115.09-0.9Q114.14-0.8 113.31-1 112.49-1.2 111.64-2.05L111.64-2.05Q111.19-2.5 110.86-3.4 110.54-4.3 110.36-5.15 110.19-6 110.21-6.65 110.24-7.3 110.44-7.25L110.44-7.25Q110.49-7.3 110.61-7.05 110.74-6.8 110.84-6.48 110.94-6.15 111.04-5.83 111.14-5.5 111.19-5.35L111.19-5.35Q111.44-4.55 111.79-3.9 112.14-3.25 112.64-2.75L112.64-2.75Q113.84-1.35 115.24-1.3L115.24-1.3Q115.34-1.3 115.46-1.28 115.59-1.25 115.59-1.15ZM108.34-22.25L108.34-22.25Q108.34-22.2 108.26-22.15 108.19-22.1 107.89-22L107.89-22Q107.24-21.75 106.29-21.18 105.34-20.6 104.29-19.75 103.24-18.9 102.21-17.78 101.19-16.65 100.44-15.35L100.44-15.35Q99.69-14 99.16-12.73 98.64-11.45 98.34-10.38 98.04-9.3 97.91-8.55 97.79-7.8 97.74-7.55L97.74-7.55Q97.69-6.7 97.69-5.88 97.69-5.05 97.91-4.38 98.14-3.7 98.64-3.35 99.14-3 100.14-3.15L100.14-3.15Q100.24-3.15 100.76-3.38 101.29-3.6 101.39-3.55L101.39-3.55Q101.44-3.5 101.34-3.35 101.24-3.2 101.04-3.03 100.84-2.85 100.66-2.73 100.49-2.6 100.44-2.55L100.44-2.55Q99.99-2.3 99.44-2.18 98.89-2.05 98.36-2.15 97.84-2.25 97.39-2.58 96.94-2.9 96.74-3.5L96.74-3.5Q96.19-5.35 96.24-7.1L96.24-7.1Q96.34-8.85 96.69-10.58 97.04-12.3 97.89-14.05L97.89-14.05Q98.39-15.4 99.46-16.85 100.54-18.3 101.94-19.5 103.34-20.7 104.86-21.5 106.39-22.3 107.74-22.35L107.74-22.35Q107.94-22.35 108.14-22.35 108.34-22.35 108.34-22.25Z" opacity="1" transform="matrix(1,0,0,1,0,0)" fill="#6a704c" class="wordmark-text-0" data-fill-palette-color="primary" id="text-0"></path></svg></g></svg></g></svg></g></svg></g><g transform="matrix(1,0,0,1,0,0.3303757942032206)"><svg viewBox="0 0 147.50410632724714 132.15031768128947" height="132.15031768128947" width="147.50410632724714"><g><svg xmlns="http://www.w3.org/2000/svg" xmlns:xlink="http://www.w3.org/1999/xlink" version="1.1" x="0" y="0" viewBox="0.985 6.087 98.03 87.826" enable-background="new 0 0 100 100" xml:space="preserve" height="132.15031768128947" width="147.50410632724714" class="icon-icon-0" data-fill-palette-color="accent" id="icon-0"><path d="M50 6.087C22.93 6.087 0.985 25.748 0.985 50 0.985 74.253 22.93 93.913 50 93.913S99.015 74.253 99.015 50 77.07 6.087 50 6.087M74.833 69.08C42.708 88.246 13.982 68.413 8.454 62.626 22.946 73.957 45.742 77.477 64.833 69.413 76.146 64.037 82.172 56.755 85 47.079 87.829 36.328 84.464 26.114 73.857 19.125 63.958 12.674 51.229 10.524 38.502 13.749 28.603 16.975 20.824 22.888 17.996 31.489 14.461 40.628 20.825 49.766 31.431 54.604 42.037 58.367 56.887 56.754 62.544 48.154 66.079 42.24 64.665 34.714 56.887 30.951 53.352 29.338 48.584 28.996 46.027 31.125 42.506 34.057 47.917 31.486 51.901 33.331 54.418 34.496 57.501 36.496 56.887 41.703 56.115 48.262 45.574 51.38 38.502 49.229 30.724 46.541 27.188 40.628 27.896 34.714 29.31 28.263 35.674 23.425 43.453 21.812 56.888 19.124 68.908 26.113 73.151 35.79 76.686 44.928 71.03 53.529 61.13 58.905 52.646 63.206 42.745 64.281 33.553 61.593 20.118 57.83 10.926 48.692 10.219 37.403 9.511 22.888 22.238 12.137 39.916 8.374 59.715 5.149 79.514 12.675 87.999 26.651 95.777 41.166 91.609 59.071 74.833 69.08" fill="#412e27" data-fill-palette-color="accent"></path></svg></g></svg></g></svg></g><defs></defs></svg><rect width="395.52" height="85.09042640651269" fill="none" stroke="none" visibility="hidden"></rect></g></svg></g></svg>